<?xml version="1.0" encoding="UTF-8" standalone="no"?>
<!DOCTYPE svg PUBLIC "-//W3C//DTD SVG 1.1//EN" "http://www.w3.org/Graphics/SVG/1.1/DTD/svg11.dtd">
<svg width="100%" height="100%" viewBox="0 0 2405 1883" version="1.1" xmlns="http://www.w3.org/2000/svg" xmlns:xlink="http://www.w3.org/1999/xlink" xml:space="preserve" xmlns:serif="http://www.serif.com/" style="fill-rule:evenodd;clip-rule:evenodd;stroke-linecap:round;stroke-linejoin:round;stroke-miterlimit:1.5;">
    <g>
        <text x="882.191px" y="548.987px" style="font-family:'CMUSerif-Italic', 'CMU Serif';font-weight:500;font-style:italic;font-size:50px;fill:rgb(0,0,255);">y</text>
        <text x="924.33px" y="548.987px" style="font-family:'CMUSerif-Roman', 'CMU Serif';font-weight:500;font-size:50px;">=</text>
        <text x="979.847px" y="548.987px" style="font-family:'CMUSerif-Italic', 'CMU Serif';font-weight:500;font-style:italic;font-size:50px;fill:rgb(0,157,9);">a</text>
        <text x="1005.38px" y="548.987px" style="font-family:'CMUSerif-Italic', 'CMU Serif';font-weight:500;font-style:italic;font-size:50px;fill:rgb(0,0,255);">x</text>
        <text x="1046.42px" y="548.987px" style="font-family:'CMUSerif-Roman', 'CMU Serif';font-weight:500;font-size:50px;">+</text>
        <g transform="matrix(50,0,0,50,1124.94,548.987)">
        </g>
        <text x="1101.94px" y="548.987px" style="font-family:'CMUSerif-Italic', 'CMU Serif';font-weight:500;font-style:italic;font-size:50px;fill:rgb(255,0,7);">b</text>
    </g>
    <g transform="matrix(1,0,0,1,-67.5514,-85.314)">
        <g transform="matrix(33.3333,0,0,33.3333,1031.82,539.313)">
        </g>
        <text x="882.191px" y="539.313px" style="font-family:'Verdana', sans-serif;font-size:33.333px;fill:rgb(0,0,255);">v<tspan x="901.267px 921.286px " y="539.313px 539.313px ">ar</tspan>iables</text>
    </g>
    <g transform="matrix(1,0,0,1,-190.412,95.0125)">
        <g transform="matrix(33.3333,0,0,33.3333,951.364,539.313)">
        </g>
        <g transform="matrix(33.3333,0,0,33.3333,963.065,539.313)">
        </g>
        <text x="882.191px" y="539.313px" style="font-family:'Verdana', sans-serif;font-size:33.333px;fill:rgb(0,157,9);">coefï¬cient of</text>
        <g transform="matrix(33.3333,0,0,33.3333,1127.91,539.313)">
        </g>
        <text x="1108.18px" y="539.313px" style="font-family:'Verdana-Italic', 'Verdana', sans-serif;font-style:italic;font-size:33.333px;fill:rgb(0,157,9);">x</text>
    </g>
    <g transform="matrix(1,0,0,1,181.075,95.0125)">
        <g transform="matrix(33.3333,0,0,33.3333,1043,539.313)">
        </g>
        <text x="882.191px" y="539.313px" style="font-family:'Verdana', sans-serif;font-size:33.333px;fill:rgb(255,0,7);">constants</text>
    </g>
    <path d="M900.528,509.718L897.442,519.001L891.867,510.962C894.344,512.817 898.674,512.194 900.528,509.718Z" style="fill:rgb(0,0,255);"/>
    <path d="M889.453,463.394C889.453,463.394 894.305,497.167 896.447,512.072" style="fill:none;stroke:rgb(0,0,255);stroke-width:2.92px;"/>
    <path d="M1001.39,511.314L1007.44,519.001L997.662,519.229C1000.57,518.182 1002.44,514.225 1001.39,511.314Z" style="fill:rgb(0,0,255);"/>
    <path d="M889.453,463.394C889.453,463.394 976.618,504.474 1001.11,516.017" style="fill:none;stroke:rgb(0,0,255);stroke-width:2.92px;"/>
    <path d="M973.663,553.28L983.442,553.001L977.798,560.992C978.692,558.03 976.625,554.174 973.663,553.28Z" style="fill:rgb(0,157,9);"/>
    <path d="M889.453,603.394C889.453,603.394 956.36,567.521 977.273,556.309" style="fill:none;stroke:rgb(0,157,9);stroke-width:2.92px;"/>
    <path d="M999.157,560.942L993.442,553.001L1003.22,553.194C1000.27,554.114 998.236,557.988 999.157,560.942Z" style="fill:rgb(255,0,7);"/>
    <path d="M1089.45,603.394C1089.45,603.394 1020.88,567.405 999.64,556.254" style="fill:none;stroke:rgb(255,0,7);stroke-width:2.92px;"/>
    <path d="M1105.73,559.021L1113.44,553.001L1113.63,562.782C1112.6,559.867 1108.65,557.986 1105.73,559.021Z" style="fill:rgb(255,0,7);"/>
    <path d="M1089.45,603.394C1089.45,603.394 1103.99,572.851 1110.43,559.322" style="fill:none;stroke:rgb(255,0,7);stroke-width:2.92px;"/>
</svg>
